<?xml version="1.0" standalone="no"?>
<!DOCTYPE svg PUBLIC "-//W3C//DTD SVG 1.1//EN" "http://www.w3.org/Graphics/SVG/1.1/DTD/svg11.dtd">
<svg width="178mm" height="178mm" viewBox="-89 -89 178 178" xmlns="http://www.w3.org/2000/svg" version="1.1">
<title>OpenSCAD Model</title>
<path d="
M -89,-0 L -88.9805,1.86386 L -88.9219,3.72693 L -88.8244,5.58835 L -88.6879,7.44733 L -88.5124,9.30302
 L -88.2982,11.1546 L -88.0452,13.0014 L -87.7536,14.8424 L -87.4236,16.6769 L -87.0551,18.5041 L -86.6485,20.3232
 L -86.2039,22.1334 L -85.7215,23.9339 L -85.2014,25.7238 L -84.644,27.5025 L -84.0495,29.2691 L -83.4181,31.0229
 L -82.7501,32.7631 L -82.0458,34.4889 L -81.3055,36.1996 L -80.5296,37.8943 L -79.7183,39.5725 L -78.8721,41.2333
 L -77.9913,42.8761 L -77.0762,44.5 L -76.1274,46.1044 L -75.1452,47.6886 L -74.13,49.2518 L -73.0823,50.7935
 L -72.0025,52.3129 L -70.8912,53.8093 L -69.7487,55.2822 L -68.5757,56.7307 L -67.3726,58.1544 L -66.1399,59.5526
 L -64.8782,60.9247 L -63.5881,62.27 L -62.27,63.5881 L -60.9247,64.8782 L -59.5526,66.1399 L -58.1544,67.3726
 L -56.7307,68.5757 L -55.2822,69.7487 L -53.8093,70.8912 L -52.3129,72.0025 L -50.7935,73.0823 L -49.2518,74.13
 L -47.6886,75.1452 L -46.1044,76.1274 L -44.5,77.0762 L -42.8761,77.9913 L -41.2333,78.8721 L -39.5725,79.7183
 L -37.8943,80.5296 L -36.1996,81.3055 L -34.4889,82.0458 L -32.7631,82.7501 L -31.0229,83.4181 L -29.2691,84.0495
 L -27.5025,84.644 L -25.7238,85.2014 L -23.9339,85.7215 L -22.1334,86.2039 L -20.3232,86.6485 L -18.5041,87.0551
 L -16.6769,87.4236 L -14.8424,87.7536 L -13.0014,88.0452 L -11.1546,88.2982 L -9.30302,88.5124 L -7.44733,88.6879
 L -5.58835,88.8244 L -3.72693,88.9219 L -1.86386,88.9805 L 0,89 L 1.86386,88.9805 L 3.72693,88.9219
 L 5.58835,88.8244 L 7.44733,88.6879 L 9.30302,88.5124 L 11.1546,88.2982 L 13.0014,88.0452 L 14.8424,87.7536
 L 16.6769,87.4236 L 18.5041,87.0551 L 20.3232,86.6485 L 22.1334,86.2039 L 23.9339,85.7215 L 25.7238,85.2014
 L 27.5025,84.644 L 29.2691,84.0495 L 31.0229,83.4181 L 32.7631,82.7501 L 34.4889,82.0458 L 36.1996,81.3055
 L 37.8943,80.5296 L 39.5725,79.7183 L 41.2333,78.8721 L 42.8761,77.9913 L 44.5,77.0762 L 46.1044,76.1274
 L 47.6886,75.1452 L 49.2518,74.13 L 50.7935,73.0823 L 52.3129,72.0025 L 53.8093,70.8912 L 55.2822,69.7487
 L 56.7307,68.5757 L 58.1544,67.3726 L 59.5526,66.1399 L 60.9247,64.8782 L 62.27,63.5881 L 63.5881,62.27
 L 64.8782,60.9247 L 66.1399,59.5526 L 67.3726,58.1544 L 68.5757,56.7307 L 69.7487,55.2822 L 70.8912,53.8093
 L 72.0025,52.3129 L 73.0823,50.7935 L 74.13,49.2518 L 75.1452,47.6886 L 76.1274,46.1044 L 77.0762,44.5
 L 77.9913,42.8761 L 78.8721,41.2333 L 79.7183,39.5725 L 80.5296,37.8943 L 81.3055,36.1996 L 82.0458,34.4889
 L 82.7501,32.7631 L 83.4181,31.0229 L 84.0495,29.2691 L 84.644,27.5025 L 85.2014,25.7238 L 85.7215,23.9339
 L 86.2039,22.1334 L 86.6485,20.3232 L 87.0551,18.5041 L 87.4236,16.6769 L 87.7536,14.8424 L 88.0452,13.0014
 L 88.2982,11.1546 L 88.5124,9.30302 L 88.6879,7.44733 L 88.8244,5.58835 L 88.9219,3.72693 L 88.9805,1.86386
 L 89,-0 L 88.9805,-1.86386 L 88.9219,-3.72693 L 88.8244,-5.58835 L 88.6879,-7.44733 L 88.5124,-9.30302
 L 88.2982,-11.1546 L 88.0452,-13.0014 L 87.7536,-14.8424 L 87.4236,-16.6769 L 87.0551,-18.5041 L 86.6485,-20.3232
 L 86.2039,-22.1334 L 85.7215,-23.9339 L 85.2014,-25.7238 L 84.644,-27.5025 L 84.0495,-29.2691 L 83.4181,-31.0229
 L 82.7501,-32.7631 L 82.0458,-34.4889 L 81.3055,-36.1996 L 80.5296,-37.8943 L 79.7183,-39.5725 L 78.8721,-41.2333
 L 77.9913,-42.8761 L 77.0762,-44.5 L 76.1274,-46.1044 L 75.1452,-47.6886 L 74.13,-49.2518 L 73.0823,-50.7935
 L 72.0025,-52.3129 L 70.8912,-53.8093 L 69.7487,-55.2822 L 68.5757,-56.7307 L 67.3726,-58.1544 L 66.1399,-59.5526
 L 64.8782,-60.9247 L 63.5881,-62.27 L 62.27,-63.5881 L 60.9247,-64.8782 L 59.5526,-66.1399 L 58.1544,-67.3726
 L 56.7307,-68.5757 L 55.2822,-69.7487 L 53.8093,-70.8912 L 52.3129,-72.0025 L 50.7935,-73.0823 L 49.2518,-74.13
 L 47.6886,-75.1452 L 46.1044,-76.1274 L 44.5,-77.0762 L 42.8761,-77.9913 L 41.2333,-78.8721 L 39.5725,-79.7183
 L 37.8943,-80.5296 L 36.1996,-81.3055 L 34.4889,-82.0458 L 32.7631,-82.7501 L 31.0229,-83.4181 L 29.2691,-84.0495
 L 27.5025,-84.644 L 25.7238,-85.2014 L 23.9339,-85.7215 L 22.1334,-86.2039 L 20.3232,-86.6485 L 18.5041,-87.0551
 L 16.6769,-87.4236 L 14.8424,-87.7536 L 13.0014,-88.0452 L 11.1546,-88.2982 L 9.30302,-88.5124 L 7.44733,-88.6879
 L 5.58835,-88.8244 L 3.72693,-88.9219 L 1.86386,-88.9805 L 0,-89 L -1.86386,-88.9805 L -3.72693,-88.9219
 L -5.58835,-88.8244 L -7.44733,-88.6879 L -9.30302,-88.5124 L -11.1546,-88.2982 L -13.0014,-88.0452 L -14.8424,-87.7536
 L -16.6769,-87.4236 L -18.5041,-87.0551 L -20.3232,-86.6485 L -22.1334,-86.2039 L -23.9339,-85.7215 L -25.7238,-85.2014
 L -27.5025,-84.644 L -29.2691,-84.0495 L -31.0229,-83.4181 L -32.7631,-82.7501 L -34.4889,-82.0458 L -36.1996,-81.3055
 L -37.8943,-80.5296 L -39.5725,-79.7183 L -41.2333,-78.8721 L -42.8761,-77.9913 L -44.5,-77.0762 L -46.1044,-76.1274
 L -47.6886,-75.1452 L -49.2518,-74.13 L -50.7935,-73.0823 L -52.3129,-72.0025 L -53.8093,-70.8912 L -55.2822,-69.7487
 L -56.7307,-68.5757 L -58.1544,-67.3726 L -59.5526,-66.1399 L -60.9247,-64.8782 L -62.27,-63.5881 L -63.5881,-62.27
 L -64.8782,-60.9247 L -66.1399,-59.5526 L -67.3726,-58.1544 L -68.5757,-56.7307 L -69.7487,-55.2822 L -70.8912,-53.8093
 L -72.0025,-52.3129 L -73.0823,-50.7935 L -74.13,-49.2518 L -75.1452,-47.6886 L -76.1274,-46.1044 L -77.0762,-44.5
 L -77.9913,-42.8761 L -78.8721,-41.2333 L -79.7183,-39.5725 L -80.5296,-37.8943 L -81.3055,-36.1996 L -82.0458,-34.4889
 L -82.7501,-32.7631 L -83.4181,-31.0229 L -84.0495,-29.2691 L -84.644,-27.5025 L -85.2014,-25.7238 L -85.7215,-23.9339
 L -86.2039,-22.1334 L -86.6485,-20.3232 L -87.0551,-18.5041 L -87.4236,-16.6769 L -87.7536,-14.8424 L -88.0452,-13.0014
 L -88.2982,-11.1546 L -88.5124,-9.30302 L -88.6879,-7.44733 L -88.8244,-5.58835 L -88.9219,-3.72693 L -88.9805,-1.86386
 z
M -69.5,-0 L -69.4848,-1.45549 L -69.439,-2.91035 L -69.3629,-4.36394 L -69.2562,-5.8156 L -69.1193,-7.26472
 L -68.952,-8.71065 L -68.7544,-10.1528 L -68.5267,-11.5904 L -68.269,-13.023 L -67.9812,-14.4499 L -67.6637,-15.8704
 L -67.3165,-17.2839 L -66.9398,-18.6899 L -66.5337,-20.0877 L -66.0984,-21.4767 L -65.6342,-22.8562 L -65.1411,-24.2258
 L -64.6195,-25.5847 L -64.0695,-26.9323 L -63.4914,-28.2682 L -62.8855,-29.5917 L -62.252,-30.9021 L -61.5911,-32.1991
 L -60.9033,-33.4819 L -60.1888,-34.75 L -59.4478,-36.0029 L -58.6808,-37.24 L -57.888,-38.4607 L -57.0699,-39.6646
 L -56.2267,-40.8511 L -55.3588,-42.0196 L -54.4667,-43.1698 L -53.5507,-44.301 L -52.6111,-45.4127 L -51.9818,-46.1266
 L -26.6867,-10.0016 L -26.7125,-9.9343 L -26.9147,-9.3727 L -27.1051,-8.80698 L -27.2836,-8.23741 L -27.4501,-7.66421
 L -27.6046,-7.08766 L -27.747,-6.508 L -27.8772,-5.92548 L -27.9952,-5.34037 L -28.1009,-4.75291 L -28.1943,-4.16337
 L -28.2753,-3.572 L -28.3439,-2.97906 L -28.4,-2.38482 L -28.4438,-1.78953 L -28.475,-1.19346 L -28.4929,-0.624985
 L -21.4561,-0.624985 L -21.4517,-0.657364 L -21.437,-0.750443 L -21.4203,-0.843201 L -21.4016,-0.935593 L -21.3811,-1.02757
 L -21.3586,-1.11909 L -21.3342,-1.21013 L -21.3079,-1.30063 L -21.2797,-1.39058 L -21.2497,-1.47989 L -21.2178,-1.56856
 L -21.184,-1.65654 L -21.1484,-1.74382 L -21.1109,-1.83029 L -21.0717,-1.916 L -21.0307,-2.00084 L -20.9879,-2.08482
 L -20.9434,-2.16789 L -20.8971,-2.24998 L -20.8491,-2.33112 L -20.7995,-2.41122 L -20.7481,-2.49025 L -20.6951,-2.56821
 L -20.6405,-2.64502 L -20.5844,-2.72069 L -20.5266,-2.79517 L -20.4673,-2.86839 L -20.4065,-2.94037 L -20.3441,-3.01106
 L -20.2803,-3.08046 L -20.2151,-3.14848 L -20.1485,-3.21512 L -20.0804,-3.28035 L -20.0111,-3.34415 L -19.9404,-3.40646
 L -19.8684,-3.4673 L -19.7951,-3.52661 L -19.7207,-3.58438 L -19.645,-3.64056 L -19.5682,-3.69516 L -19.4902,-3.74814
 L -19.4112,-3.79947 L -19.3311,-3.84914 L -19.25,-3.89711 L -19.1679,-3.94337 L -19.0848,-3.98792 L -19.0008,-4.0307
 L -18.916,-4.07172 L -18.8303,-4.11095 L -18.7438,-4.14838 L -18.6565,-4.18399 L -18.5686,-4.21776 L -18.4799,-4.24968
 L -18.3906,-4.27974 L -18.3006,-4.30794 L -18.2101,-4.33421 L -18.1191,-4.35861 L -18.0276,-4.3811 L -17.9356,-4.40164
 L -17.8432,-4.42027 L -17.7504,-4.43697 L -17.6573,-4.45172 L -17.564,-4.46451 L -17.4704,-4.47534 L -17.3765,-4.48421
 L -17.2825,-4.4911 L -17.1884,-4.49605 L -17.0942,-4.49901 L -17,-4.49998 L -16.9057,-4.49901 L -16.8115,-4.49605
 L -16.7174,-4.4911 L -16.6234,-4.48421 L -16.5296,-4.47533 L -16.436,-4.46451 L -16.3426,-4.45171 L -16.2495,-4.43697
 L -16.1568,-4.42027 L -16.0644,-4.40166 L -15.9724,-4.38109 L -15.8809,-4.35861 L -15.7898,-4.33423 L -15.6993,-4.30794
 L -15.6094,-4.27974 L -15.5201,-4.24968 L -15.4314,-4.21776 L -15.3434,-4.18398 L -15.2562,-4.14838 L -15.1697,-4.11093
 L -15.084,-4.07172 L -14.9991,-4.03069 L -14.9151,-3.9879 L -14.8321,-3.94337 L -14.75,-3.89711 L -14.6689,-3.84912
 L -14.5888,-3.79947 L -14.5097,-3.74814 L -14.4318,-3.69516 L -14.3549,-3.64056 L -14.2793,-3.58437 L -14.2048,-3.52661
 L -14.1316,-3.4673 L -14.0596,-3.40646 L -13.9889,-3.34413 L -13.9195,-3.28033 L -13.8515,-3.21512 L -13.7849,-3.14847
 L -13.7196,-3.08044 L -13.6558,-3.01108 L -13.5935,-2.94038 L -13.5327,-2.86841 L -13.4734,-2.79515 L -13.4156,-2.72069
 L -13.3594,-2.64502 L -13.3048,-2.56821 L -13.2518,-2.49025 L -13.2005,-2.41121 L -13.1508,-2.33112 L -13.1029,-2.25
 L -13.0566,-2.16788 L -13.0121,-2.08482 L -12.9693,-2.00085 L -12.9283,-1.916 L -12.889,-1.83031 L -12.8516,-1.7438
 L -12.816,-1.65656 L -12.7822,-1.56856 L -12.7503,-1.4799 L -12.7202,-1.39056 L -12.692,-1.30063 L -12.6658,-1.21013
 L -12.6414,-1.11909 L -12.6189,-1.02757 L -12.5983,-0.935593 L -12.5797,-0.843201 L -12.563,-0.750443 L -12.5483,-0.657364
 L -12.5355,-0.563995 L -12.5246,-0.470367 L -12.5158,-0.376541 L -12.5089,-0.282547 L -12.5039,-0.188431 L -12.501,-0.0942383
 L -12.5,-0 L -12.501,0.0942383 L -12.5039,0.188431 L -12.5089,0.282547 L -12.5158,0.376541 L -12.5246,0.470367
 L -12.5355,0.563995 L -12.5483,0.657364 L -12.563,0.750443 L -12.5797,0.843216 L -12.5983,0.935593 L -12.6189,1.02757
 L -12.6414,1.11911 L -12.6658,1.21013 L -12.692,1.30064 L -12.7202,1.39058 L -12.7503,1.47989 L -12.7822,1.56857
 L -12.816,1.65656 L -12.8516,1.74382 L -12.889,1.83031 L -12.9283,1.916 L -12.9693,2.00085 L -13.0121,2.08482
 L -13.0566,2.16789 L -13.1029,2.25 L -13.1508,2.33112 L -13.2005,2.41122 L -13.2518,2.49026 L -13.3048,2.56821
 L -13.3594,2.64502 L -13.4156,2.72069 L -13.4734,2.79517 L -13.5327,2.86841 L -13.5935,2.94038 L -13.6558,3.01108
 L -13.7196,3.08046 L -13.7849,3.14848 L -13.8515,3.21512 L -13.9195,3.28035 L -13.9889,3.34415 L -14.0596,3.40648
 L -14.1316,3.46732 L -14.2048,3.52661 L -14.2793,3.58438 L -14.3549,3.64058 L -14.4318,3.69516 L -14.5097,3.74814
 L -14.5888,3.79947 L -14.6689,3.84914 L -14.75,3.89711 L -14.8321,3.94337 L -14.9151,3.98792 L -14.9991,4.0307
 L -15.084,4.07172 L -15.1697,4.11095 L -15.2562,4.14838 L -15.3434,4.18399 L -15.4314,4.21777 L -15.5201,4.24969
 L -15.6094,4.27974 L -15.6993,4.30794 L -15.7898,4.33421 L -15.8809,4.35863 L -15.9724,4.3811 L -16.0644,4.40166
 L -16.1568,4.42029 L -16.2495,4.43698 L -16.3426,4.45172 L -16.436,4.46451 L -16.5296,4.47534 L -16.6234,4.48421
 L -16.7174,4.49112 L -16.8115,4.49605 L -16.9057,4.49901 L -17,4.5 L -17.0942,4.49901 L -17.1884,4.49605
 L -17.2825,4.49112 L -17.3765,4.48421 L -17.4704,4.47534 L -17.564,4.46451 L -17.6574,4.45172 L -17.7504,4.43698
 L -17.8432,4.42027 L -17.9356,4.40166 L -18.0276,4.3811 L -18.1191,4.35861 L -18.2101,4.33423 L -18.3006,4.30794
 L -18.3906,4.27974 L -18.4799,4.24969 L -18.5686,4.21776 L -18.6565,4.18398 L -18.7438,4.14838 L -18.8303,4.11095
 L -18.916,4.07172 L -19.0008,4.03069 L -19.0848,3.9879 L -19.1679,3.94337 L -19.25,3.89709 L -19.3311,3.84912
 L -19.4112,3.79947 L -19.4902,3.74814 L -19.5682,3.69516 L -19.645,3.64056 L -19.7207,3.58437 L -19.7952,3.52661
 L -19.8684,3.46732 L -19.9404,3.40648 L -20.0111,3.34415 L -20.0804,3.28035 L -20.1485,3.21512 L -20.2151,3.14848
 L -20.2803,3.08046 L -20.3441,3.01108 L -20.4065,2.94038 L -20.4673,2.86841 L -20.5266,2.79515 L -20.5844,2.72069
 L -20.6406,2.64502 L -20.6951,2.56821 L -20.7481,2.49025 L -20.7995,2.41121 L -20.8491,2.33112 L -20.8971,2.24998
 L -20.9434,2.16788 L -20.9879,2.08482 L -21.0307,2.00085 L -21.0717,1.916 L -21.1109,1.83031 L -21.1484,1.7438
 L -21.184,1.65656 L -21.2178,1.56856 L -21.2497,1.4799 L -21.2797,1.39058 L -21.3079,1.30064 L -21.3342,1.21014
 L -21.3586,1.11909 L -21.3811,1.02759 L -21.4016,0.935608 L -21.4203,0.843216 L -21.437,0.750458 L -21.4517,0.657364
 L -21.4561,0.624985 L -28.4929,0.625 L -28.475,1.19346 L -28.4438,1.78953 L -28.4,2.38482 L -28.3439,2.97906
 L -28.2753,3.572 L -28.1943,4.16337 L -28.1009,4.75291 L -27.9952,5.34037 L -27.8772,5.92548 L -27.747,6.508
 L -27.6046,7.08766 L -27.4501,7.66421 L -27.2836,8.23741 L -27.1051,8.80698 L -26.9147,9.3727 L -26.7125,9.9343
 L -26.6867,10.0016 L -51.9818,46.1266 L -52.6111,45.4127 L -53.5507,44.301 L -54.4667,43.1698 L -55.3588,42.0196
 L -56.2267,40.8511 L -57.0699,39.6646 L -57.888,38.4607 L -58.6808,37.24 L -59.4478,36.0029 L -60.1888,34.75
 L -60.9033,33.4819 L -61.5911,32.1991 L -62.252,30.9021 L -62.8855,29.5917 L -63.4914,28.2682 L -64.0695,26.9323
 L -64.6195,25.5847 L -65.1411,24.2258 L -65.6342,22.8562 L -66.0984,21.4767 L -66.5337,20.0877 L -66.9398,18.6899
 L -67.3165,17.2839 L -67.6637,15.8704 L -67.9812,14.4499 L -68.269,13.023 L -68.5267,11.5904 L -68.7544,10.1528
 L -68.952,8.71065 L -69.1193,7.26472 L -69.2562,5.8156 L -69.3629,4.36394 L -69.439,2.91035 L -69.4848,1.45549
 z
M -13.9559,68.0808 L 4.68172,28.1122 L 4.75291,28.1009 L 5.34037,27.9952 L 5.92548,27.8772 L 6.508,27.747
 L 7.08766,27.6046 L 7.66421,27.4501 L 8.23741,27.2836 L 8.80698,27.1051 L 9.3727,26.9147 L 9.9343,26.7125
 L 10.4915,26.4986 L 11.0442,26.2731 L 11.592,26.036 L 12.1347,25.7876 L 12.6721,25.5278 L 13.2039,25.2568
 L 13.7052,24.988 L 10.1868,18.894 L 10.1566,18.9064 L 10.0686,18.9402 L 9.97989,18.9721 L 9.89056,19.0022
 L 9.80063,19.0303 L 9.71011,19.0566 L 9.61909,19.081 L 9.52757,19.1035 L 9.43559,19.1241 L 9.3432,19.1427
 L 9.25046,19.1594 L 9.15736,19.1741 L 9.06398,19.1869 L 8.97037,19.1978 L 8.87654,19.2066 L 8.78255,19.2135
 L 8.68843,19.2185 L 8.59422,19.2214 L 8.49998,19.2224 L 8.40575,19.2214 L 8.31154,19.2185 L 8.21742,19.2135
 L 8.12343,19.2066 L 8.0296,19.1978 L 7.93599,19.1869 L 7.84261,19.1741 L 7.74953,19.1594 L 7.65678,19.1427
 L 7.56439,19.1241 L 7.47241,19.1035 L 7.38087,19.081 L 7.28984,19.0566 L 7.19934,19.0303 L 7.10941,19.0022
 L 7.0201,18.9721 L 6.93141,18.9402 L 6.84341,18.9064 L 6.75616,18.8708 L 6.66966,18.8334 L 6.58398,18.7941
 L 6.49911,18.7531 L 6.41515,18.7103 L 6.33209,18.6658 L 6.24998,18.6195 L 6.16887,18.5716 L 6.08876,18.5219
 L 6.00972,18.4706 L 5.93178,18.4176 L 5.85495,18.363 L 5.7793,18.3068 L 5.70482,18.249 L 5.63158,18.1897
 L 5.5596,18.1289 L 5.48891,18.0666 L 5.41953,18.0028 L 5.3515,17.9375 L 5.28487,17.8709 L 5.21964,17.8029
 L 5.15584,17.7335 L 5.09352,17.6628 L 5.03268,17.5908 L 4.97336,17.5176 L 4.9156,17.4431 L 4.85941,17.3674
 L 4.80481,17.2906 L 4.75185,17.2127 L 4.7005,17.1336 L 4.65085,17.0535 L 4.60287,16.9724 L 4.55659,16.8903
 L 4.51207,16.8073 L 4.46928,16.7233 L 4.42828,16.6384 L 4.38904,16.5527 L 4.35159,16.4662 L 4.31599,16.379
 L 4.28223,16.291 L 4.25029,16.2023 L 4.22023,16.113 L 4.19206,16.0231 L 4.16576,15.9326 L 4.14136,15.8415
 L 4.11888,15.75 L 4.09833,15.658 L 4.0797,15.5656 L 4.063,15.4729 L 4.04826,15.3798 L 4.03548,15.2864
 L 4.02464,15.1928 L 4.01576,15.099 L 4.00887,15.005 L 4.00394,14.9108 L 4.00098,14.8167 L 3.99998,14.7224
 L 4.00098,14.6282 L 4.00394,14.534 L 4.00887,14.4399 L 4.01576,14.3459 L 4.02464,14.252 L 4.03548,14.1584
 L 4.04826,14.065 L 4.063,13.972 L 4.0797,13.8792 L 4.09833,13.7868 L 4.1189,13.6948 L 4.14137,13.6033
 L 4.16576,13.5123 L 4.19206,13.4218 L 4.22023,13.3318 L 4.25029,13.2425 L 4.28223,13.1539 L 4.31601,13.0659
 L 4.35159,12.9786 L 4.38904,12.8921 L 4.42827,12.8064 L 4.46928,12.7216 L 4.51207,12.6376 L 4.55659,12.5545
 L 4.60287,12.4724 L 4.65085,12.3913 L 4.7005,12.3112 L 4.75185,12.2322 L 4.80481,12.1542 L 4.85941,12.0774
 L 4.9156,12.0017 L 4.97337,11.9273 L 5.03268,11.854 L 5.09351,11.782 L 5.15584,11.7113 L 5.21964,11.642
 L 5.28487,11.5739 L 5.3515,11.5073 L 5.41953,11.4421 L 5.48891,11.3783 L 5.5596,11.3159 L 5.63158,11.2551
 L 5.70483,11.1958 L 5.77928,11.138 L 5.85495,11.0818 L 5.93178,11.0272 L 6.00974,10.9743 L 6.08878,10.9229
 L 6.16885,10.8733 L 6.24998,10.8253 L 6.33211,10.779 L 6.41515,10.7345 L 6.49913,10.6917 L 6.58398,10.6507
 L 6.66968,10.6115 L 6.75618,10.574 L 6.84343,10.5384 L 6.93141,10.5047 L 7.0201,10.4727 L 7.10941,10.4427
 L 7.19934,10.4145 L 7.28986,10.3882 L 7.38089,10.3638 L 7.47241,10.3413 L 7.56439,10.3207 L 7.65677,10.3021
 L 7.74953,10.2854 L 7.84262,10.2707 L 7.93599,10.2579 L 8.02962,10.2471 L 8.12344,10.2382 L 8.21744,10.2313
 L 8.31155,10.2264 L 8.40575,10.2234 L 8.5,10.2224 L 8.59424,10.2234 L 8.68843,10.2263 L 8.78256,10.2313
 L 8.87654,10.2382 L 8.97037,10.2471 L 9.064,10.2579 L 9.15736,10.2707 L 9.25046,10.2854 L 9.3432,10.3021
 L 9.43559,10.3208 L 9.52757,10.3413 L 9.61909,10.3638 L 9.71013,10.3882 L 9.80063,10.4145 L 9.89056,10.4427
 L 9.97989,10.4727 L 10.0686,10.5046 L 10.1566,10.5384 L 10.2438,10.574 L 10.3303,10.6115 L 10.416,10.6507
 L 10.5009,10.6917 L 10.5848,10.7345 L 10.6679,10.779 L 10.75,10.8253 L 10.8311,10.8733 L 10.9112,10.9229
 L 10.9902,10.9743 L 11.0682,11.0272 L 11.145,11.0818 L 11.2207,11.138 L 11.2952,11.1958 L 11.3684,11.2551
 L 11.4404,11.3159 L 11.5111,11.3783 L 11.5804,11.442 L 11.6485,11.5073 L 11.7151,11.5739 L 11.7803,11.642
 L 11.8441,11.7113 L 11.9065,11.782 L 11.9673,11.854 L 12.0266,11.9272 L 12.0844,12.0017 L 12.1406,12.0774
 L 12.1952,12.1542 L 12.2481,12.2321 L 12.2995,12.3112 L 12.3491,12.3913 L 12.3971,12.4724 L 12.4434,12.5545
 L 12.4879,12.6376 L 12.5307,12.7216 L 12.5717,12.8064 L 12.6109,12.8921 L 12.6484,12.9786 L 12.684,13.0659
 L 12.7178,13.1538 L 12.7497,13.2425 L 12.7797,13.3318 L 12.8079,13.4218 L 12.8342,13.5123 L 12.8586,13.6033
 L 12.8811,13.6948 L 12.9017,13.7868 L 12.9203,13.8792 L 12.937,13.972 L 12.9517,14.065 L 12.9645,14.1584
 L 12.9753,14.252 L 12.9842,14.3459 L 12.9911,14.4399 L 12.996,14.534 L 12.999,14.6282 L 13,14.7224
 L 12.999,14.8167 L 12.996,14.9109 L 12.9911,15.005 L 12.9842,15.099 L 12.9753,15.1928 L 12.9645,15.2864
 L 12.9517,15.3798 L 12.937,15.4729 L 12.9203,15.5656 L 12.9017,15.658 L 12.8811,15.75 L 12.8586,15.8415
 L 12.8342,15.9326 L 12.8079,16.0231 L 12.7797,16.113 L 12.7497,16.2023 L 12.7178,16.291 L 12.684,16.379
 L 12.6484,16.4662 L 12.6109,16.5527 L 12.5717,16.6384 L 12.5307,16.7233 L 12.4879,16.8073 L 12.4434,16.8903
 L 12.3971,16.9724 L 12.3491,17.0535 L 12.2995,17.1336 L 12.2481,17.2127 L 12.1952,17.2906 L 12.1406,17.3674
 L 12.0844,17.4431 L 12.0266,17.5176 L 11.9673,17.5908 L 11.9065,17.6628 L 11.8441,17.7335 L 11.7803,17.8029
 L 11.7151,17.8709 L 11.6485,17.9375 L 11.5805,18.0028 L 11.5111,18.0666 L 11.4404,18.1289 L 11.3684,18.1897
 L 11.2952,18.249 L 11.2693,18.2691 L 14.7877,24.363 L 15.2711,24.0633 L 15.7717,23.7383 L 16.2653,23.4028
 L 16.7519,23.057 L 17.2311,22.7011 L 17.7027,22.3353 L 18.1666,21.9596 L 18.6225,21.5744 L 19.0702,21.1796
 L 19.5096,20.7756 L 19.9404,20.3625 L 20.3625,19.9404 L 20.7756,19.5096 L 21.1796,19.0702 L 21.5744,18.6225
 L 21.9596,18.1666 L 22.005,18.1106 L 65.9377,21.9542 L 65.6342,22.8562 L 65.1411,24.2258 L 64.6195,25.5847
 L 64.0695,26.9323 L 63.4914,28.2682 L 62.8855,29.5917 L 62.252,30.9021 L 61.5911,32.1991 L 60.9033,33.4819
 L 60.1888,34.75 L 59.4478,36.0029 L 58.6808,37.24 L 57.888,38.4607 L 57.0699,39.6646 L 56.2267,40.8511
 L 55.3588,42.0196 L 54.4667,43.1698 L 53.5507,44.301 L 52.6111,45.4127 L 51.6486,46.5046 L 50.6633,47.576
 L 49.6558,48.6266 L 48.6266,49.6558 L 47.576,50.6633 L 46.5046,51.6486 L 45.4127,52.6111 L 44.301,53.5507
 L 43.1698,54.4667 L 42.0196,55.3588 L 40.8511,56.2267 L 39.6646,57.0699 L 38.4607,57.888 L 37.24,58.6808
 L 36.0029,59.4478 L 34.75,60.1888 L 33.4819,60.9033 L 32.1991,61.5911 L 30.9021,62.252 L 29.5917,62.8855
 L 28.2682,63.4914 L 26.9323,64.0695 L 25.5847,64.6195 L 24.2258,65.1411 L 22.8562,65.6342 L 21.4767,66.0984
 L 20.0877,66.5337 L 18.6899,66.9398 L 17.2839,67.3165 L 15.8704,67.6637 L 14.4499,67.9812 L 13.023,68.269
 L 11.5904,68.5267 L 10.1528,68.7544 L 8.71065,68.952 L 7.26472,69.1193 L 5.8156,69.2562 L 4.36394,69.3629
 L 2.91035,69.439 L 1.45549,69.4848 L 0,69.5 L -1.45549,69.4848 L -2.91035,69.439 L -4.36394,69.3629
 L -5.8156,69.2562 L -7.26472,69.1193 L -8.71065,68.952 L -10.1528,68.7544 L -11.5904,68.5267 L -13.023,68.269
 z
M -13.9559,-68.0808 L -13.023,-68.269 L -11.5904,-68.5267 L -10.1528,-68.7544 L -8.71065,-68.952 L -7.26472,-69.1193
 L -5.8156,-69.2562 L -4.36394,-69.3629 L -2.91035,-69.439 L -1.45549,-69.4848 L 0,-69.5 L 1.45549,-69.4848
 L 2.91035,-69.439 L 4.36394,-69.3629 L 5.8156,-69.2562 L 7.26472,-69.1193 L 8.71065,-68.952 L 10.1528,-68.7544
 L 11.5904,-68.5267 L 13.023,-68.269 L 14.4499,-67.9812 L 15.8704,-67.6637 L 17.2839,-67.3165 L 18.6899,-66.9398
 L 20.0877,-66.5337 L 21.4767,-66.0984 L 22.8562,-65.6342 L 24.2258,-65.1411 L 25.5847,-64.6195 L 26.9323,-64.0695
 L 28.2682,-63.4914 L 29.5917,-62.8855 L 30.9021,-62.252 L 32.1991,-61.5911 L 33.4819,-60.9033 L 34.75,-60.1888
 L 36.0029,-59.4478 L 37.24,-58.6808 L 38.4607,-57.888 L 39.6646,-57.0699 L 40.8511,-56.2267 L 42.0196,-55.3588
 L 43.1698,-54.4667 L 44.301,-53.5507 L 45.4127,-52.6111 L 46.5046,-51.6486 L 47.576,-50.6633 L 48.6266,-49.6558
 L 49.6558,-48.6266 L 50.6633,-47.576 L 51.6486,-46.5046 L 52.6111,-45.4127 L 53.5507,-44.301 L 54.4667,-43.1698
 L 55.3588,-42.0196 L 56.2267,-40.8511 L 57.0699,-39.6646 L 57.888,-38.4607 L 58.6808,-37.24 L 59.4478,-36.0029
 L 60.1888,-34.75 L 60.9033,-33.4819 L 61.5911,-32.1991 L 62.252,-30.9021 L 62.8855,-29.5917 L 63.4914,-28.2682
 L 64.0695,-26.9323 L 64.6195,-25.5847 L 65.1411,-24.2258 L 65.6342,-22.8562 L 65.9377,-21.9542 L 22.005,-18.1106
 L 21.9596,-18.1666 L 21.5744,-18.6225 L 21.1796,-19.0702 L 20.7756,-19.5096 L 20.3625,-19.9404 L 19.9404,-20.3625
 L 19.5096,-20.7756 L 19.0702,-21.1796 L 18.6225,-21.5744 L 18.1666,-21.9596 L 17.7027,-22.3353 L 17.2311,-22.7011
 L 16.7519,-23.057 L 16.2653,-23.4028 L 15.7717,-23.7383 L 15.2711,-24.0633 L 14.7877,-24.363 L 11.2693,-18.2691
 L 11.2952,-18.249 L 11.3684,-18.1897 L 11.4404,-18.1289 L 11.5111,-18.0666 L 11.5805,-18.0028 L 11.6485,-17.9375
 L 11.7151,-17.8709 L 11.7803,-17.8029 L 11.8441,-17.7335 L 11.9065,-17.6628 L 11.9673,-17.5908 L 12.0266,-17.5176
 L 12.0844,-17.4431 L 12.1406,-17.3675 L 12.1952,-17.2906 L 12.2481,-17.2127 L 12.2995,-17.1337 L 12.3491,-17.0535
 L 12.3971,-16.9724 L 12.4434,-16.8903 L 12.4879,-16.8073 L 12.5307,-16.7233 L 12.5717,-16.6384 L 12.6109,-16.5527
 L 12.6484,-16.4662 L 12.684,-16.379 L 12.7178,-16.291 L 12.7497,-16.2023 L 12.7797,-16.113 L 12.8079,-16.0231
 L 12.8342,-15.9326 L 12.8586,-15.8415 L 12.8811,-15.75 L 12.9017,-15.658 L 12.9203,-15.5656 L 12.937,-15.4729
 L 12.9517,-15.3798 L 12.9645,-15.2864 L 12.9753,-15.1928 L 12.9842,-15.099 L 12.9911,-15.005 L 12.996,-14.9109
 L 12.999,-14.8167 L 13,-14.7224 L 12.999,-14.6282 L 12.996,-14.534 L 12.9911,-14.4399 L 12.9842,-14.3459
 L 12.9753,-14.252 L 12.9645,-14.1584 L 12.9517,-14.065 L 12.937,-13.972 L 12.9203,-13.8792 L 12.9017,-13.7868
 L 12.8811,-13.6948 L 12.8586,-13.6033 L 12.8342,-13.5123 L 12.8079,-13.4218 L 12.7797,-13.3318 L 12.7497,-13.2425
 L 12.7178,-13.1539 L 12.684,-13.0659 L 12.6484,-12.9786 L 12.6109,-12.8921 L 12.5717,-12.8064 L 12.5307,-12.7216
 L 12.4879,-12.6376 L 12.4434,-12.5545 L 12.3971,-12.4724 L 12.3491,-12.3913 L 12.2995,-12.3112 L 12.2481,-12.2322
 L 12.1952,-12.1542 L 12.1406,-12.0774 L 12.0844,-12.0017 L 12.0266,-11.9273 L 11.9673,-11.854 L 11.9065,-11.782
 L 11.8441,-11.7113 L 11.7803,-11.642 L 11.7151,-11.5739 L 11.6485,-11.5073 L 11.5805,-11.4421 L 11.5111,-11.3783
 L 11.4404,-11.3159 L 11.3684,-11.2551 L 11.2952,-11.1958 L 11.2207,-11.138 L 11.145,-11.0818 L 11.0682,-11.0273
 L 10.9902,-10.9743 L 10.9112,-10.9229 L 10.8311,-10.8733 L 10.75,-10.8253 L 10.6679,-10.779 L 10.5848,-10.7345
 L 10.5009,-10.6917 L 10.416,-10.6507 L 10.3303,-10.6115 L 10.2438,-10.574 L 10.1566,-10.5384 L 10.0686,-10.5047
 L 9.97989,-10.4727 L 9.89056,-10.4427 L 9.80063,-10.4145 L 9.71013,-10.3882 L 9.61909,-10.3638 L 9.52757,-10.3413
 L 9.43559,-10.3208 L 9.3432,-10.3021 L 9.25046,-10.2854 L 9.15736,-10.2707 L 9.064,-10.2579 L 8.97037,-10.2471
 L 8.87654,-10.2382 L 8.78255,-10.2313 L 8.68843,-10.2264 L 8.59424,-10.2234 L 8.5,-10.2224 L 8.40575,-10.2234
 L 8.31155,-10.2264 L 8.21744,-10.2313 L 8.12344,-10.2382 L 8.02962,-10.2471 L 7.93599,-10.2579 L 7.84262,-10.2707
 L 7.74953,-10.2854 L 7.65678,-10.3021 L 7.56439,-10.3208 L 7.47241,-10.3413 L 7.38089,-10.3638 L 7.28986,-10.3882
 L 7.19936,-10.4145 L 7.10942,-10.4427 L 7.0201,-10.4727 L 6.93141,-10.5047 L 6.84343,-10.5384 L 6.75618,-10.574
 L 6.66968,-10.6115 L 6.58398,-10.6507 L 6.49913,-10.6917 L 6.41516,-10.7345 L 6.33211,-10.779 L 6.25,-10.8253
 L 6.16887,-10.8733 L 6.08878,-10.9229 L 6.00974,-10.9743 L 5.93178,-11.0273 L 5.85497,-11.0818 L 5.7793,-11.138
 L 5.70483,-11.1958 L 5.63159,-11.2551 L 5.5596,-11.3159 L 5.48891,-11.3783 L 5.41953,-11.4421 L 5.3515,-11.5073
 L 5.28487,-11.5739 L 5.21964,-11.642 L 5.15584,-11.7113 L 5.09352,-11.782 L 5.03268,-11.854 L 4.97337,-11.9273
 L 4.9156,-12.0017 L 4.85942,-12.0774 L 4.80482,-12.1542 L 4.75185,-12.2322 L 4.70052,-12.3112 L 4.65085,-12.3913
 L 4.60287,-12.4724 L 4.55661,-12.5545 L 4.51207,-12.6376 L 4.46928,-12.7216 L 4.42827,-12.8064 L 4.38904,-12.8921
 L 4.35161,-12.9786 L 4.31599,-13.0659 L 4.28223,-13.1539 L 4.25031,-13.2425 L 4.22025,-13.3318 L 4.19205,-13.4218
 L 4.16576,-13.5123 L 4.14137,-13.6033 L 4.11888,-13.6948 L 4.09833,-13.7868 L 4.0797,-13.8792 L 4.063,-13.972
 L 4.04826,-14.065 L 4.03548,-14.1584 L 4.02464,-14.252 L 4.01578,-14.3459 L 4.00887,-14.4399 L 4.00394,-14.534
 L 4.00098,-14.6282 L 4,-14.7224 L 4.00098,-14.8167 L 4.00394,-14.9109 L 4.00887,-15.005 L 4.01578,-15.099
 L 4.02464,-15.1928 L 4.03548,-15.2864 L 4.04826,-15.3798 L 4.063,-15.4729 L 4.0797,-15.5656 L 4.09833,-15.658
 L 4.11888,-15.75 L 4.14137,-15.8415 L 4.16576,-15.9326 L 4.19205,-16.0231 L 4.22025,-16.113 L 4.25031,-16.2023
 L 4.28223,-16.291 L 4.31599,-16.379 L 4.35161,-16.4662 L 4.38904,-16.5527 L 4.42827,-16.6384 L 4.46928,-16.7233
 L 4.51207,-16.8073 L 4.55661,-16.8903 L 4.60287,-16.9724 L 4.65085,-17.0535 L 4.70052,-17.1337 L 4.75185,-17.2127
 L 4.80482,-17.2906 L 4.85942,-17.3675 L 4.9156,-17.4431 L 4.97337,-17.5176 L 5.03268,-17.5908 L 5.09352,-17.6628
 L 5.15584,-17.7335 L 5.21964,-17.8029 L 5.28487,-17.8709 L 5.3515,-17.9375 L 5.41953,-18.0028 L 5.48891,-18.0666
 L 5.5596,-18.1289 L 5.63159,-18.1897 L 5.70483,-18.249 L 5.7793,-18.3068 L 5.85497,-18.363 L 5.93178,-18.4176
 L 6.00974,-18.4706 L 6.08878,-18.5219 L 6.16887,-18.5716 L 6.25,-18.6195 L 6.33211,-18.6658 L 6.41516,-18.7103
 L 6.49913,-18.7531 L 6.58398,-18.7941 L 6.66968,-18.8334 L 6.75618,-18.8708 L 6.84343,-18.9064 L 6.93141,-18.9402
 L 7.0201,-18.9721 L 7.10942,-19.0022 L 7.19936,-19.0304 L 7.28986,-19.0567 L 7.38089,-19.0811 L 7.47241,-19.1035
 L 7.56439,-19.1241 L 7.65678,-19.1427 L 7.74953,-19.1594 L 7.84262,-19.1741 L 7.93599,-19.1869 L 8.02962,-19.1978
 L 8.12344,-19.2066 L 8.21744,-19.2135 L 8.31155,-19.2185 L 8.40575,-19.2214 L 8.5,-19.2224 L 8.59424,-19.2214
 L 8.68843,-19.2185 L 8.78255,-19.2135 L 8.87654,-19.2066 L 8.97037,-19.1978 L 9.064,-19.1869 L 9.15736,-19.1741
 L 9.25046,-19.1594 L 9.3432,-19.1427 L 9.43559,-19.1241 L 9.52757,-19.1035 L 9.61909,-19.0811 L 9.71013,-19.0567
 L 9.80063,-19.0304 L 9.89056,-19.0022 L 9.97989,-18.9721 L 10.0686,-18.9402 L 10.1566,-18.9064 L 10.1868,-18.8941
 L 13.7052,-24.988 L 13.2039,-25.2568 L 12.6721,-25.5278 L 12.1347,-25.7876 L 11.592,-26.036 L 11.0442,-26.2731
 L 10.4915,-26.4986 L 9.9343,-26.7125 L 9.3727,-26.9147 L 8.80698,-27.1051 L 8.23741,-27.2836 L 7.66421,-27.4501
 L 7.08766,-27.6046 L 6.508,-27.747 L 5.92548,-27.8772 L 5.34037,-27.9952 L 4.75291,-28.1009 L 4.68172,-28.1122
 z
M -4.57498,6.06216 L -4.57474,6.03966 L -4.57404,6.01715 L -4.57286,5.99467 L -4.57121,5.97221 L -4.56909,5.9498
 L -4.5665,5.92743 L -4.56345,5.90512 L -4.55992,5.88289 L -4.55594,5.86073 L -4.5515,5.83865 L -4.54659,5.81668
 L -4.5412,5.79483 L -4.53537,5.77309 L -4.5291,5.75146 L -4.52237,5.72998 L -4.5152,5.70863 L -4.50757,5.68745
 L -4.4995,5.66643 L -4.49098,5.64558 L -4.48206,5.62492 L -4.47267,5.60446 L -4.46288,5.58418 L -4.45265,5.56413
 L -4.442,5.54428 L -4.43097,5.52467 L -2.92209,2.91121 L -2.94719,2.88611 L -3.00699,2.82375 L -3.06546,2.76016
 L -3.1226,2.69536 L -3.17836,2.62936 L -3.23273,2.56223 L -3.28568,2.49396 L -3.33719,2.42461 L -3.38724,2.35419
 L -3.43579,2.28273 L -3.48285,2.21028 L -3.52837,2.13686 L -3.57234,2.0625 L -3.61476,1.98723 L -3.65558,1.91109
 L -3.69481,1.83411 L -3.73241,1.75633 L -3.76837,1.67778 L -3.80267,1.5985 L -3.83533,1.51851 L -3.86629,1.43785
 L -3.89554,1.35657 L -3.9231,1.27469 L -3.94893,1.19225 L -3.97304,1.10928 L -3.99539,1.02583 L -4.01601,0.94194
 L -4.03485,0.857635 L -4.05193,0.772934 L -4.06723,0.687912 L -4.08073,0.602585 L -4.09247,0.516998 L -4.1024,0.431168
 L -4.11052,0.345169 L -4.11685,0.259003 L -4.12137,0.172729 L -4.12408,0.08638 L -4.125,-0 L -4.12408,-0.08638
 L -4.12137,-0.172729 L -4.11685,-0.259003 L -4.11052,-0.345169 L -4.1024,-0.431168 L -4.09247,-0.516998 L -4.08073,-0.602585
 L -4.06723,-0.687912 L -4.05193,-0.772934 L -4.03485,-0.857635 L -4.01601,-0.94194 L -3.99539,-1.02583 L -3.97304,-1.10928
 L -3.94893,-1.19225 L -3.9231,-1.27469 L -3.89554,-1.35657 L -3.86629,-1.43785 L -3.83533,-1.51851 L -3.80267,-1.5985
 L -3.76837,-1.67778 L -3.73241,-1.75633 L -3.69481,-1.83411 L -3.65558,-1.91109 L -3.61476,-1.98723 L -3.57234,-2.0625
 L -3.52837,-2.13686 L -3.48285,-2.21028 L -3.43579,-2.28273 L -3.38724,-2.35419 L -3.33719,-2.42461 L -3.28568,-2.49396
 L -3.23273,-2.56223 L -3.17836,-2.62936 L -3.1226,-2.69536 L -3.06546,-2.76016 L -3.00699,-2.82375 L -2.94719,-2.88611
 L -2.92209,-2.91121 L -4.43097,-5.52467 L -4.442,-5.54428 L -4.45265,-5.56413 L -4.46288,-5.58418 L -4.47267,-5.60446
 L -4.48206,-5.62492 L -4.49098,-5.64558 L -4.4995,-5.66643 L -4.50757,-5.68745 L -4.5152,-5.70863 L -4.52237,-5.72998
 L -4.5291,-5.75146 L -4.53537,-5.77309 L -4.5412,-5.79483 L -4.54659,-5.81668 L -4.5515,-5.83865 L -4.55594,-5.86073
 L -4.55992,-5.88289 L -4.56345,-5.90512 L -4.5665,-5.92743 L -4.56909,-5.9498 L -4.57121,-5.97221 L -4.57286,-5.99467
 L -4.57404,-6.01715 L -4.57474,-6.03966 L -4.57498,-6.06216 L -4.57475,-6.08467 L -4.57404,-6.10718 L -4.57286,-6.12967
 L -4.57121,-6.15213 L -4.56909,-6.17453 L -4.5665,-6.1969 L -4.56345,-6.21921 L -4.55992,-6.24144 L -4.55595,-6.2636
 L -4.5515,-6.28568 L -4.54659,-6.30765 L -4.54121,-6.32951 L -4.53539,-6.35126 L -4.5291,-6.37286 L -4.52237,-6.39436
 L -4.5152,-6.4157 L -4.50757,-6.43687 L -4.4995,-6.4579 L -4.49098,-6.47874 L -4.48206,-6.4994 L -4.47267,-6.51987
 L -4.46288,-6.54015 L -4.45265,-6.56021 L -4.44202,-6.58005 L -4.43095,-6.59967 L -4.41949,-6.61903 L -4.40764,-6.63818
 L -4.39537,-6.65706 L -4.38272,-6.67569 L -4.36967,-6.69403 L -4.35625,-6.71211 L -4.34245,-6.7299 L -4.32828,-6.74739
 L -4.31375,-6.76459 L -4.29886,-6.78149 L -4.28363,-6.79807 L -4.26804,-6.8143 L -4.25212,-6.83022 L -4.23587,-6.84581
 L -4.2193,-6.86105 L -4.20241,-6.87593 L -4.18521,-6.89046 L -4.16771,-6.90465 L -4.14992,-6.91844 L -4.13185,-6.93185
 L -4.11351,-6.9449 L -4.09488,-6.95757 L -4.076,-6.96982 L -4.05685,-6.98167 L -4.03749,-6.99315 L -4.01788,-7.00418
 L -3.99803,-7.01483 L -3.97798,-7.02505 L -3.9577,-7.03485 L -3.93724,-7.04422 L -3.91658,-7.05316 L -3.89574,-7.06168
 L -3.87471,-7.06973 L -3.85353,-7.07736 L -3.83218,-7.08455 L -3.8107,-7.09128 L -3.78908,-7.09755 L -3.76733,-7.10338
 L -3.74547,-7.10876 L -3.72351,-7.11368 L -3.70143,-7.11812 L -3.67928,-7.1221 L -3.65703,-7.12563 L -3.63474,-7.12868
 L -3.61237,-7.13127 L -3.58995,-7.13339 L -3.56749,-7.13504 L -3.54501,-7.13622 L -3.52251,-7.13692 L -3.5,-7.13716
 L -3.47748,-7.13692 L -3.45497,-7.13622 L -3.4325,-7.13504 L -3.41003,-7.13338 L -3.38762,-7.13127 L -3.36526,-7.12868
 L -3.34296,-7.12563 L -3.32071,-7.1221 L -3.29855,-7.11812 L -3.27649,-7.11368 L -3.25452,-7.10875 L -3.23265,-7.10339
 L -3.21091,-7.09756 L -3.18929,-7.09128 L -3.1678,-7.08455 L -3.14645,-7.07736 L -3.12529,-7.06973 L -3.10426,-7.06168
 L -3.08342,-7.05316 L -3.06276,-7.04422 L -3.04228,-7.03485 L -3.02202,-7.02505 L -3.00195,-7.01482 L -2.9821,-7.00418
 L -2.96249,-6.99313 L -2.94313,-6.98167 L -2.92398,-6.96982 L -2.90511,-6.95755 L -2.88647,-6.9449 L -2.86813,-6.93185
 L -2.85005,-6.91843 L -2.83226,-6.90462 L -2.81477,-6.89046 L -2.79758,-6.87593 L -2.78067,-6.86104 L -2.7641,-6.84579
 L -2.74786,-6.83022 L -2.73195,-6.8143 L -2.71635,-6.79805 L -2.70111,-6.78148 L -2.68622,-6.76459 L -2.67169,-6.74739
 L -2.65752,-6.72989 L -2.64372,-6.7121 L -2.63029,-6.69403 L -2.61726,-6.67569 L -2.6046,-6.65706 L -2.59235,-6.63818
 L -2.58049,-6.61903 L -2.56902,-6.59967 L -1.06013,-3.98621 L -1.02583,-3.99539 L -0.94194,-4.01601 L -0.857635,-4.03485
 L -0.772934,-4.05193 L -0.687912,-4.06723 L -0.602585,-4.08073 L -0.516998,-4.09247 L -0.431168,-4.1024 L -0.345169,-4.11052
 L -0.259003,-4.11685 L -0.172729,-4.12137 L -0.08638,-4.12408 L 0,-4.125 L 0.08638,-4.12408 L 0.172729,-4.12137
 L 0.259003,-4.11685 L 0.345169,-4.11052 L 0.431168,-4.1024 L 0.516998,-4.09247 L 0.602585,-4.08073 L 0.687912,-4.06723
 L 0.772934,-4.05193 L 0.857635,-4.03485 L 0.94194,-4.01601 L 1.02583,-3.99539 L 1.10928,-3.97304 L 1.19225,-3.94893
 L 1.27469,-3.9231 L 1.35657,-3.89554 L 1.43785,-3.86629 L 1.51851,-3.83533 L 1.5985,-3.80267 L 1.67778,-3.76837
 L 1.75633,-3.73241 L 1.83411,-3.69481 L 1.91109,-3.65558 L 1.98723,-3.61476 L 2.0625,-3.57234 L 2.13686,-3.52837
 L 2.21028,-3.48285 L 2.28273,-3.43579 L 2.35419,-3.38724 L 2.42461,-3.33719 L 2.49396,-3.28568 L 2.56223,-3.23273
 L 2.62936,-3.17836 L 2.69536,-3.1226 L 2.76016,-3.06546 L 2.82375,-3.00699 L 2.88611,-2.94719 L 2.94719,-2.88611
 L 3.00699,-2.82375 L 3.06546,-2.76016 L 3.1226,-2.69536 L 3.17836,-2.62936 L 3.23273,-2.56223 L 3.28568,-2.49396
 L 3.33719,-2.42461 L 3.38724,-2.35419 L 3.43579,-2.28273 L 3.48285,-2.21028 L 3.52837,-2.13686 L 3.57234,-2.0625
 L 3.61476,-1.98723 L 3.65558,-1.91109 L 3.69481,-1.83411 L 3.73241,-1.75633 L 3.76837,-1.67778 L 3.80267,-1.5985
 L 3.83533,-1.51851 L 3.86629,-1.43785 L 3.89554,-1.35657 L 3.9231,-1.27469 L 3.94893,-1.19225 L 3.97304,-1.10928
 L 3.98222,-1.075 L 7,-1.075 L 7.02251,-1.07475 L 7.04501,-1.07405 L 7.06749,-1.07288 L 7.08995,-1.07123
 L 7.11237,-1.06911 L 7.13472,-1.06651 L 7.15703,-1.06346 L 7.17928,-1.05994 L 7.20143,-1.05595 L 7.2235,-1.0515
 L 7.24547,-1.04659 L 7.26733,-1.04121 L 7.28908,-1.03539 L 7.3107,-1.02911 L 7.33218,-1.02238 L 7.35353,-1.0152
 L 7.37471,-1.00757 L 7.39572,-0.999496 L 7.41656,-0.990997 L 7.43724,-0.982056 L 7.4577,-0.972687 L 7.47798,-0.962875
 L 7.49803,-0.952667 L 7.51788,-0.942017 L 7.53749,-0.930969 L 7.55687,-0.91951 L 7.576,-0.907639 L 7.59489,-0.895386
 L 7.61351,-0.882721 L 7.63187,-0.86969 L 7.64993,-0.856262 L 7.66772,-0.842468 L 7.68523,-0.828293 L 7.70242,-0.813766
 L 7.71931,-0.798874 L 7.73589,-0.78363 L 7.75214,-0.768051 L 7.76805,-0.752136 L 7.78363,-0.735886 L 7.79887,-0.719315
 L 7.81377,-0.702423 L 7.82829,-0.685226 L 7.84247,-0.667725 L 7.85626,-0.649933 L 7.86969,-0.631866 L 7.88272,-0.61351
 L 7.89539,-0.594894 L 7.90764,-0.576004 L 7.91951,-0.55687 L 7.93097,-0.537491 L 7.94202,-0.517883 L 7.95267,-0.498032
 L 7.96288,-0.477982 L 7.97269,-0.457703 L 7.98206,-0.437241 L 7.991,-0.416565 L 7.9995,-0.395721 L 8.00757,-0.37471
 L 8.0152,-0.353531 L 8.02238,-0.332184 L 8.02911,-0.310699 L 8.03539,-0.289078 L 8.04121,-0.267334 L 8.04659,-0.245468
 L 8.0515,-0.223495 L 8.05595,-0.201431 L 8.05994,-0.179276 L 8.06346,-0.157028 L 8.06651,-0.13472 L 8.06911,-0.112366
 L 8.07123,-0.0899506 L 8.07288,-0.0674896 L 8.07405,-0.0450134 L 8.07475,-0.0225067 L 8.075,-0 L 8.07475,0.0225067
 L 8.07405,0.0450134 L 8.07288,0.0674896 L 8.07123,0.0899506 L 8.06911,0.112366 L 8.06651,0.13472 L 8.06346,0.157028
 L 8.05994,0.179276 L 8.05595,0.201431 L 8.0515,0.223495 L 8.04659,0.245468 L 8.04121,0.267334 L 8.03539,0.289078
 L 8.02911,0.310699 L 8.02238,0.332184 L 8.0152,0.353531 L 8.00757,0.37471 L 7.9995,0.395721 L 7.991,0.416565
 L 7.98206,0.437241 L 7.97269,0.457703 L 7.96288,0.477982 L 7.95267,0.498032 L 7.94202,0.517883 L 7.93097,0.537491
 L 7.91951,0.55687 L 7.90764,0.576004 L 7.89539,0.594894 L 7.88272,0.61351 L 7.86969,0.631866 L 7.85626,0.649933
 L 7.84247,0.667725 L 7.82829,0.685226 L 7.81377,0.702423 L 7.79887,0.719315 L 7.78363,0.735886 L 7.76805,0.752136
 L 7.75214,0.768051 L 7.73589,0.78363 L 7.71931,0.798874 L 7.70242,0.813766 L 7.68523,0.828293 L 7.66772,0.842468
 L 7.64993,0.856262 L 7.63187,0.86969 L 7.61351,0.882721 L 7.59489,0.895386 L 7.576,0.907639 L 7.55687,0.91951
 L 7.53749,0.930969 L 7.51788,0.942017 L 7.49803,0.952667 L 7.47798,0.962875 L 7.4577,0.972687 L 7.43724,0.982056
 L 7.41656,0.990997 L 7.39572,0.999496 L 7.37471,1.00757 L 7.35353,1.0152 L 7.33218,1.02238 L 7.3107,1.02911
 L 7.28908,1.03539 L 7.26733,1.04121 L 7.24547,1.04659 L 7.2235,1.0515 L 7.20143,1.05595 L 7.17928,1.05994
 L 7.15703,1.06346 L 7.13472,1.06651 L 7.11237,1.06911 L 7.08995,1.07123 L 7.06749,1.07288 L 7.04501,1.07405
 L 7.02251,1.07475 L 7,1.075 L 3.98222,1.075 L 3.97304,1.10928 L 3.94893,1.19225 L 3.9231,1.27469
 L 3.89554,1.35657 L 3.86629,1.43785 L 3.83533,1.51851 L 3.80267,1.5985 L 3.76837,1.67778 L 3.73241,1.75633
 L 3.69481,1.83411 L 3.65558,1.91109 L 3.61476,1.98723 L 3.57234,2.0625 L 3.52837,2.13686 L 3.48285,2.21028
 L 3.43579,2.28273 L 3.38724,2.35419 L 3.33719,2.42461 L 3.28568,2.49396 L 3.23273,2.56223 L 3.17836,2.62936
 L 3.1226,2.69536 L 3.06546,2.76016 L 3.00699,2.82375 L 2.94719,2.88611 L 2.88611,2.94719 L 2.82375,3.00699
 L 2.76016,3.06546 L 2.69536,3.1226 L 2.62936,3.17836 L 2.56223,3.23273 L 2.49396,3.28568 L 2.42461,3.33719
 L 2.35419,3.38724 L 2.28273,3.43579 L 2.21028,3.48285 L 2.13686,3.52837 L 2.0625,3.57234 L 1.98723,3.61476
 L 1.91109,3.65558 L 1.83411,3.69481 L 1.75633,3.73241 L 1.67778,3.76837 L 1.5985,3.80267 L 1.51851,3.83533
 L 1.43785,3.86629 L 1.35657,3.89554 L 1.27469,3.9231 L 1.19225,3.94893 L 1.10928,3.97304 L 1.02583,3.99539
 L 0.94194,4.01601 L 0.857635,4.03485 L 0.772934,4.05193 L 0.687912,4.06723 L 0.602585,4.08073 L 0.516998,4.09247
 L 0.431168,4.1024 L 0.345169,4.11052 L 0.259003,4.11685 L 0.172729,4.12137 L 0.08638,4.12408 L 0,4.125
 L -0.08638,4.12408 L -0.172729,4.12137 L -0.259003,4.11685 L -0.345169,4.11052 L -0.431168,4.1024 L -0.516998,4.09247
 L -0.602585,4.08073 L -0.687912,4.06723 L -0.772934,4.05193 L -0.857635,4.03485 L -0.94194,4.01601 L -1.02583,3.99539
 L -1.06013,3.98621 L -2.56902,6.59967 L -2.58049,6.61903 L -2.59235,6.63818 L -2.6046,6.65706 L -2.61726,6.67569
 L -2.63029,6.69403 L -2.64372,6.7121 L -2.65752,6.72989 L -2.67169,6.74739 L -2.68622,6.76459 L -2.70111,6.78148
 L -2.71635,6.79805 L -2.73195,6.8143 L -2.74786,6.83022 L -2.7641,6.84579 L -2.78067,6.86104 L -2.79758,6.87593
 L -2.81477,6.89046 L -2.83226,6.90462 L -2.85005,6.91843 L -2.86813,6.93185 L -2.88647,6.9449 L -2.90511,6.95755
 L -2.92398,6.96982 L -2.94313,6.98167 L -2.96249,6.99313 L -2.9821,7.00418 L -3.00195,7.01482 L -3.02202,7.02505
 L -3.04228,7.03485 L -3.06276,7.04422 L -3.08342,7.05316 L -3.10426,7.06168 L -3.12529,7.06973 L -3.14645,7.07736
 L -3.1678,7.08455 L -3.18929,7.09128 L -3.21091,7.09756 L -3.23265,7.10339 L -3.25452,7.10875 L -3.27649,7.11368
 L -3.29855,7.11812 L -3.32071,7.1221 L -3.34296,7.12563 L -3.36526,7.12868 L -3.38762,7.13127 L -3.41003,7.13338
 L -3.4325,7.13504 L -3.45497,7.13622 L -3.47748,7.13692 L -3.5,7.13716 L -3.52251,7.13692 L -3.54501,7.13622
 L -3.56749,7.13504 L -3.58995,7.13339 L -3.61237,7.13127 L -3.63474,7.12868 L -3.65703,7.12563 L -3.67928,7.1221
 L -3.70143,7.11812 L -3.72351,7.11368 L -3.74547,7.10876 L -3.76733,7.10338 L -3.78908,7.09755 L -3.8107,7.09128
 L -3.83218,7.08455 L -3.85353,7.07736 L -3.87471,7.06973 L -3.89574,7.06168 L -3.91658,7.05316 L -3.93724,7.04422
 L -3.9577,7.03485 L -3.97798,7.02505 L -3.99803,7.01483 L -4.01788,7.00418 L -4.03749,6.99315 L -4.05685,6.98167
 L -4.076,6.96982 L -4.09488,6.95757 L -4.11351,6.9449 L -4.13185,6.93185 L -4.14992,6.91844 L -4.16771,6.90465
 L -4.18521,6.89046 L -4.20241,6.87593 L -4.2193,6.86105 L -4.23587,6.84581 L -4.25212,6.83022 L -4.26804,6.8143
 L -4.28363,6.79807 L -4.29886,6.78149 L -4.31375,6.76459 L -4.32828,6.74739 L -4.34245,6.7299 L -4.35625,6.71211
 L -4.36967,6.69403 L -4.38272,6.67569 L -4.39537,6.65706 L -4.40764,6.63818 L -4.41949,6.61903 L -4.43095,6.59967
 L -4.44202,6.58005 L -4.45265,6.56021 L -4.46288,6.54015 L -4.47267,6.51987 L -4.48206,6.4994 L -4.49098,6.47874
 L -4.4995,6.4579 L -4.50757,6.43687 L -4.5152,6.4157 L -4.52237,6.39436 L -4.5291,6.37286 L -4.53539,6.35126
 L -4.54121,6.32951 L -4.54659,6.30765 L -4.5515,6.28568 L -4.55595,6.2636 L -4.55992,6.24144 L -4.56345,6.21921
 L -4.5665,6.1969 L -4.56909,6.17453 L -4.57121,6.15213 L -4.57286,6.12967 L -4.57404,6.10718 L -4.57475,6.08467
 z
M -28.5,-0 L -28.5,0.00145626 L -28.5,-0.00145626 z
M 14.2481,24.6828 L 14.25,24.6817 L 14.2519,24.6806 z
M 14.2492,-24.6822 L 14.2508,-24.6813 L 14.25,-24.6817 z
" stroke="black" fill="lightgray" stroke-width="0.5"/>
</svg>
